<svg width="39" height="39" viewBox="0 0 39 39" fill="none" xmlns="http://www.w3.org/2000/svg">
<path d="M19.5005 29.6956C17.1399 26.9386 15.752 24.522 15.2919 22.4545C13.1829 14.7938 25.8238 14.7938 23.7148 22.4545C23.2051 24.5655 21.8171 26.9812 19.5061 29.6956H19.5005ZM32.421 36.0705C28.4874 37.6644 24.5958 35.1233 21.2635 31.6769C30.9808 20.3539 25.5759 14.2663 19.5005 14.2663C14.3641 14.2663 11.5359 18.3151 12.647 23.0151C13.2951 25.5562 15.0066 28.4463 17.7376 31.6769C14.6952 34.8151 12.0746 36.2637 9.77389 36.4578C5.09762 37.1046 1.43985 32.8834 3.10553 28.5282C4.51777 25.1192 13.5542 8.40324 13.9423 7.49963C15.4153 4.88194 16.3328 2.50278 19.4958 2.50278C22.5205 2.50278 23.5548 4.76093 25.142 7.71465C28.5089 13.8623 33.4985 23.1648 35.8824 28.5282C37.1141 31.407 35.7543 34.7342 32.421 36.0705ZM36.8167 24.2208C24.7632 0.342121 24.0954 0 19.5005 0C15.2432 0 13.4335 2.75697 11.5827 6.3366C1.65402 24.8188 0.691646 27.4383 0.608409 27.6663C-1.7503 33.7017 3.10927 38.9998 8.99108 38.9998C11.0215 38.9998 14.6597 38.4722 19.5005 33.5677C24.9886 39.1199 28.9709 38.9998 30.01 38.9998C35.8918 39.0041 40.7513 33.7017 38.3908 27.6663C38.3926 27.3277 36.8177 24.28 36.8177 24.2208H36.8167Z" fill="black"/>
</svg>
