<svg width="39" height="48" viewBox="0 0 39 48" fill="none" xmlns="http://www.w3.org/2000/svg">
<path d="M32.6071 25.3653C32.5863 21.4325 34.3063 18.4641 37.7877 16.278C35.8398 13.3953 32.8972 11.8093 29.0117 11.4985C25.3334 11.1985 21.3132 13.7168 19.8419 13.7168C18.2877 13.7168 14.7234 11.6057 11.9259 11.6057C6.14426 11.7021 0 16.3744 0 25.8797C0 28.6874 0.497343 31.5879 1.49203 34.5813C2.81828 38.5141 7.60521 48.1588 12.5994 47.998C15.2104 47.9337 17.0547 46.0798 20.4532 46.0798C23.7481 46.0798 25.4578 47.998 28.3693 47.998C33.4049 47.923 37.7359 39.1571 39 35.2135C32.2444 31.9237 32.6071 25.5689 32.6071 25.3653V25.3653ZM26.7426 7.76927C29.5712 4.29721 29.3122 1.13592 29.2293 0C26.7322 0.150027 23.8414 1.75746 22.1939 3.73997C20.3807 5.86178 19.3135 8.48726 19.5414 11.4449C22.2457 11.6593 24.7117 10.2233 26.7426 7.76927V7.76927Z" fill="black"/>
</svg>
