<svg width="46" height="30" viewBox="0 0 46 30" fill="none" xmlns="http://www.w3.org/2000/svg">
<path d="M3.81736 1.5H26.8493C28.1605 1.5 29.1667 2.53121 29.1667 3.73438V26.2656C29.1667 27.4688 28.1605 28.5 26.8493 28.5H3.81736C2.5062 28.5 1.5 27.4688 1.5 26.2656V3.73438C1.5 2.53121 2.5062 1.5 3.81736 1.5ZM34.7222 20.3505V9.64894L42.8104 4.19115C42.8109 4.19078 42.8115 4.19041 42.8121 4.19004C43.6041 3.66064 44.5 4.28145 44.5 4.96094V25.0312C44.5 25.7156 43.5994 26.3324 42.8133 25.803C42.8132 25.8029 42.8132 25.8029 42.8131 25.8029L34.7222 20.3505Z" stroke="white" stroke-width="3"/>
</svg>
