<svg width="49" height="49" viewBox="0 0 49 49" fill="none" xmlns="http://www.w3.org/2000/svg">
<path d="M48.0535 43.2598C49.4966 44.7451 49.2637 46.9512 47.5311 48.1882C46.7676 48.7333 45.8404 49 44.9192 49C43.7488 49 42.5879 48.571 41.7815 47.74L24.4987 29.8723L7.22173 47.6457C6.41428 48.4763 5.25415 48.9057 4.08406 48.9057C3.16292 48.9057 2.23643 48.6391 1.47211 48.0939C-0.260692 46.8569 -0.494198 44.6508 0.949715 43.1655L19.1837 24.4077L0.946653 5.74425C-0.496878 4.25894 -0.263626 2.05285 1.46955 0.815826C3.1998 -0.424484 5.77348 -0.224984 7.21918 1.26361L24.4987 19.0333L41.7756 1.25989C43.2175 -0.225422 45.7924 -0.426672 47.5252 0.812107C49.258 2.04914 49.4915 4.25523 48.0476 5.74053L29.8137 24.4983L48.0535 43.2598Z" fill="#F33636"/>
</svg>
