<svg width="40" height="40" viewBox="0 0 40 40" fill="none" xmlns="http://www.w3.org/2000/svg">
<path d="M1.42857 7.34694H38.5714C39.3604 7.34694 40 6.61602 40 5.71429V1.63265C40 0.730918 39.3604 0 38.5714 0H1.42857C0.639554 0 0 0.730918 0 1.63265V5.71429C0 6.61602 0.639554 7.34694 1.42857 7.34694ZM1.42857 23.6735H38.5714C39.3604 23.6735 40 22.9426 40 22.0408V17.9592C40 17.0574 39.3604 16.3265 38.5714 16.3265H1.42857C0.639554 16.3265 0 17.0574 0 17.9592V22.0408C0 22.9426 0.639554 23.6735 1.42857 23.6735ZM1.42857 40H38.5714C39.3604 40 40 39.2691 40 38.3673V34.2857C40 33.384 39.3604 32.6531 38.5714 32.6531H1.42857C0.639554 32.6531 0 33.384 0 34.2857V38.3673C0 39.2691 0.639554 40 1.42857 40Z" fill="#F33636"/>
</svg>
