<svg width="51" height="48" viewBox="0 0 51 48" fill="none" xmlns="http://www.w3.org/2000/svg">
<path d="M17.0583 38.6495C17.0583 38.848 16.8218 39.0068 16.5236 39.0068C16.1843 39.0366 15.9478 38.8778 15.9478 38.6495C15.9478 38.451 16.1843 38.2922 16.4825 38.2922C16.7909 38.2624 17.0583 38.4212 17.0583 38.6495ZM13.8605 38.2029C13.7885 38.4014 13.9942 38.6297 14.3026 38.6892C14.57 38.7885 14.8784 38.6892 14.9401 38.4907C15.0018 38.2922 14.8065 38.0639 14.498 37.9746C14.2306 37.9051 13.9325 38.0044 13.8605 38.2029ZM18.4052 38.0342C18.1071 38.1036 17.9014 38.2922 17.9323 38.5205C17.9631 38.719 18.2304 38.848 18.5389 38.7786C18.8371 38.7091 19.0427 38.5205 19.0119 38.322C18.981 38.1334 18.7034 38.0044 18.4052 38.0342ZM25.171 0C10.9095 0 0 10.4515 0 24.218C0 35.2253 7.17702 44.6445 17.4284 47.9596C18.7446 48.1878 19.2073 47.4037 19.2073 46.7586C19.2073 46.1432 19.1764 42.7487 19.1764 40.6644C19.1764 40.6644 11.9788 42.1532 10.4673 37.7066C10.4673 37.7066 9.29516 34.8183 7.60887 34.0739C7.60887 34.0739 5.25423 32.5156 7.77339 32.5454C7.77339 32.5454 10.3337 32.7439 11.7423 35.1062C13.9942 38.9374 17.7677 37.8356 19.2381 37.1806C19.4746 35.5925 20.1429 34.4908 20.8833 33.8357C15.1355 33.2203 9.33629 32.4164 9.33629 22.8681C9.33629 20.1386 10.1177 18.7689 11.7629 17.0221C11.4956 16.3769 10.6216 13.7169 12.0302 10.2827C14.1792 9.63757 19.125 12.9626 19.125 12.9626C21.1815 12.4068 23.3921 12.1189 25.5823 12.1189C27.7724 12.1189 29.9831 12.4068 32.0395 12.9626C32.0395 12.9626 36.9853 9.62764 39.1343 10.2827C40.5429 13.7268 39.669 16.3769 39.4016 17.0221C41.0468 18.7789 42.0544 20.1486 42.0544 22.8681C42.0544 32.4462 35.9982 33.2104 30.2504 33.8357C31.1964 34.6198 31.9984 36.1086 31.9984 38.4411C31.9984 41.786 31.9675 45.9249 31.9675 46.7387C31.9675 47.3839 32.4405 48.168 33.7464 47.9397C44.0286 44.6445 51 35.2253 51 24.218C51 10.4515 39.4325 0 25.171 0ZM9.99435 34.2327C9.86069 34.332 9.89153 34.5603 10.0663 34.7488C10.2308 34.9077 10.4673 34.9771 10.601 34.8481C10.7347 34.7488 10.7038 34.5206 10.529 34.332C10.3645 34.1732 10.128 34.1037 9.99435 34.2327ZM8.88387 33.4288C8.8119 33.5578 8.91472 33.7166 9.12036 33.8159C9.28488 33.9151 9.49052 33.8853 9.5625 33.7464C9.63448 33.6173 9.53165 33.4585 9.32601 33.3593C9.12036 33.2997 8.95585 33.3295 8.88387 33.4288ZM12.2153 36.9622C12.0508 37.0912 12.1125 37.389 12.349 37.5776C12.5855 37.8059 12.8837 37.8356 13.0173 37.6768C13.151 37.5478 13.0893 37.25 12.8837 37.0615C12.6575 36.8332 12.349 36.8034 12.2153 36.9622ZM11.0431 35.5032C10.8786 35.6024 10.8786 35.8605 11.0431 36.0888C11.2077 36.3171 11.4853 36.4163 11.619 36.3171C11.7835 36.188 11.7835 35.93 11.619 35.7017C11.475 35.4734 11.2077 35.3741 11.0431 35.5032Z" fill="black"/>
</svg>
