<svg width="32" height="61" viewBox="0 0 32 61" fill="none" xmlns="http://www.w3.org/2000/svg">
  <path d="M27.7507 20H16.932L20.9258 7.83125C21.3007 6.40625 20.2226 5 18.7508 5H5.25093C4.12594 5 3.16971 5.83437 3.01971 6.95L0.0197414 29.45C-0.158382 30.8 0.891606 32 2.25097 32H13.379L9.05714 50.2344C8.71964 51.6594 9.80713 53 11.2415 53C12.029 53 12.779 52.5875 13.1915 51.875L29.6913 23.375C30.5631 21.8844 29.485 20 27.7507 20Z" fill="black" />
  <path d="M24.8892 49.2841C24.0133 49.2841 23.2616 48.9704 22.6342 48.343C22.0069 47.7157 21.6932 46.964 21.6932 46.0881C21.6932 45.2121 22.0069 44.4605 22.6342 43.8331C23.2616 43.2057 24.0133 42.892 24.8892 42.892C25.7652 42.892 26.5168 43.2057 27.1442 43.8331C27.7715 44.4605 28.0852 45.2121 28.0852 46.0881C28.0852 46.6681 27.9373 47.2008 27.6413 47.6861C27.3572 48.1714 26.9725 48.562 26.4872 48.858C26.0137 49.142 25.4811 49.2841 24.8892 49.2841Z" fill="black" />
</svg>