<svg width="50" height="50" viewBox="0 0 50 50" fill="none" xmlns="http://www.w3.org/2000/svg">
<path d="M20.9507 37.2464L17.0757 31.3285C16.5445 30.518 15.6539 30.2446 14.8882 30.6547L6.13829 35.3421C5.30236 35.7913 4.84924 36.9143 5.05236 38.0276L6.92735 48.1836C7.12266 49.2383 7.87266 50 8.75547 50C16.6226 50 23.8882 46.836 29.8257 41.5139L23.5757 35.4788C22.7241 36.1136 21.8491 36.719 20.9507 37.2464ZM49.5131 44.7364L37.1147 32.764C42.0209 25.0396 44.9975 15.323 44.9975 4.68846C44.9975 3.59473 44.3959 2.64748 43.5444 2.40335L35.4194 0.0596485C34.5366 -0.194252 33.6303 0.381907 33.271 1.41704L29.521 12.3543C29.1929 13.3113 29.4116 14.4343 30.06 15.0886L34.7944 19.9323C33.8413 22.4811 32.6147 24.8443 31.2007 27.0415L3.55237 0.33308C3.0055 -0.194252 2.22425 -0.0770674 1.79456 0.606512L0.263323 3.0674C-0.15855 3.75098 -0.0648003 4.72752 0.482072 5.25485L46.4506 49.6582C46.9975 50.1855 47.7787 50.0684 48.2084 49.3848L49.7396 46.9141C50.1615 46.2501 50.0599 45.2638 49.5131 44.7364Z" fill="black"/>
</svg>
