<?xml version="1.0" standalone="no"?>
<!DOCTYPE svg PUBLIC "-//W3C//DTD SVG 20010904//EN"
 "http://www.w3.org/TR/2001/REC-SVG-20010904/DTD/svg10.dtd">
<svg version="1.0" xmlns="http://www.w3.org/2000/svg"
 width="976.000000pt" height="976.000000pt" viewBox="0 0 976.000000 976.000000"
 preserveAspectRatio="xMidYMid meet">
<metadata>
Created by potrace 1.14, written by Peter Selinger 2001-2017
</metadata>
<g transform="translate(0.000000,976.000000) scale(0.100000,-0.100000)"
fill="#000000" stroke="none">
<path d="M3177 8963 c-2 -2 -27 -5 -56 -7 -65 -5 -166 -53 -216 -104 -39 -39
-90 -135 -99 -187 -3 -16 -8 -50 -11 -75 -3 -25 -8 -60 -11 -78 -2 -18 -7 -54
-10 -80 -2 -26 -7 -58 -9 -72 -3 -14 -7 -47 -10 -75 -3 -27 -7 -61 -10 -75 -4
-24 -10 -69 -21 -155 -5 -48 -14 -109 -20 -150 -7 -42 -14 -102 -19 -158 -2
-26 -6 -50 -8 -55 -3 -4 -8 -32 -11 -62 -15 -127 -22 -182 -29 -225 -3 -16 -9
-57 -12 -90 -4 -33 -9 -71 -11 -85 -2 -14 -6 -45 -9 -70 -2 -25 -6 -56 -9 -70
-4 -22 -7 -44 -22 -157 -2 -18 -6 -48 -8 -65 -3 -18 -8 -58 -11 -88 -4 -30 -9
-66 -11 -80 -3 -14 -7 -38 -8 -55 -5 -48 -18 -149 -21 -165 -5 -27 -15 -94
-20 -140 -12 -94 -16 -126 -21 -161 -2 -20 -7 -54 -9 -74 -3 -21 -7 -50 -10
-64 -2 -14 -7 -51 -10 -81 -5 -54 -11 -90 -20 -140 -3 -14 -7 -50 -10 -80 -3
-30 -8 -66 -10 -80 -12 -81 -16 -110 -20 -150 -6 -50 -14 -112 -20 -150 -3
-14 -7 -47 -10 -75 -3 -27 -8 -57 -10 -65 -10 -39 -20 -153 -19 -230 0 -75 4
-92 31 -145 32 -62 98 -135 145 -159 73 -38 123 -46 271 -45 9 0 33 0 52 0 19
0 41 0 48 0 6 0 37 -1 67 -1 30 -1 60 -1 65 0 6 1 14 2 18 1 7 -1 102 -1 230
0 9 0 33 0 52 0 19 0 41 0 48 0 6 0 37 -1 67 -1 30 -1 60 -1 65 0 6 1 14 2 18
1 7 -1 102 -1 230 0 9 0 33 0 52 0 19 0 41 0 48 0 6 0 37 -1 67 -1 30 -1 60
-1 65 0 6 1 14 2 19 1 23 -5 236 -2 243 2 5 3 15 2 22 -2 7 -5 30 -5 51 -1 22
4 42 5 45 2 3 -3 30 -5 61 -4 53 0 56 -1 50 -21 -4 -12 -9 -33 -12 -47 -3 -14
-11 -50 -19 -80 -8 -30 -16 -66 -19 -80 -2 -14 -11 -52 -20 -85 -8 -33 -18
-71 -20 -85 -5 -21 -50 -216 -62 -260 -4 -18 -83 -351 -94 -400 -5 -19 -11
-45 -14 -58 -3 -12 -8 -31 -11 -43 -2 -11 -6 -28 -9 -37 -3 -9 -7 -28 -10 -42
-2 -14 -20 -90 -40 -170 -19 -80 -37 -156 -39 -170 -3 -14 -12 -52 -20 -85 -9
-33 -18 -71 -21 -85 -3 -14 -9 -40 -15 -59 -6 -19 -13 -52 -17 -75 -3 -22 -8
-45 -11 -50 -4 -5 -7 -19 -9 -30 -2 -12 -8 -41 -15 -66 -6 -25 -13 -54 -15
-65 -6 -31 -13 -63 -19 -82 -2 -10 -9 -40 -15 -68 -6 -27 -14 -57 -17 -65 -4
-8 -7 -22 -8 -30 -1 -15 -59 -260 -115 -485 -26 -102 -33 -212 -18 -275 19
-81 106 -181 194 -225 52 -25 70 -29 149 -29 50 0 99 4 110 8 11 5 22 10 25
11 14 3 76 39 88 51 7 7 21 19 31 26 15 11 101 133 101 143 0 2 45 81 100 175
55 94 100 173 100 175 0 2 28 50 63 107 34 56 68 114 75 128 7 14 26 48 42 75
17 28 35 59 40 70 6 11 20 36 31 55 12 19 51 87 87 150 37 63 69 117 72 120 3
3 18 30 34 60 16 30 47 82 68 116 21 34 38 66 38 73 0 6 5 11 10 11 6 0 10 4
10 10 0 5 19 42 43 82 24 40 46 80 50 88 4 8 17 31 28 50 21 34 154 263 236
405 23 39 41 74 41 79 0 5 4 12 9 15 5 3 49 76 99 161 49 85 94 164 101 175 7
11 17 29 23 40 5 11 22 41 37 67 49 82 106 182 118 203 5 11 18 31 26 45 9 14
59 99 112 190 52 91 104 181 116 200 11 19 25 44 31 55 5 11 23 43 40 70 16
28 49 84 72 125 23 41 45 77 50 78 4 2 8 9 8 16 0 6 11 28 25 49 14 20 22 37
18 37 -4 0 -3 4 3 8 8 5 208 347 268 457 6 11 13 22 16 25 3 3 11 16 18 29 29
50 51 89 101 175 28 49 51 92 51 95 0 4 5 12 12 19 13 13 65 103 99 172 33 67
32 203 -2 281 -64 148 -184 219 -369 219 -25 -1 -54 0 -65 0 -11 1 -27 1 -35
1 -8 0 -36 -1 -63 -1 -26 -1 -51 1 -56 5 -5 3 -12 1 -16 -4 -3 -6 -12 -8 -19
-5 -20 8 -156 10 -156 3 0 -4 -17 -3 -38 1 -20 3 -49 3 -63 -1 -15 -3 -32 -3
-39 1 -6 4 -29 4 -51 0 -21 -4 -39 -5 -39 -1 0 3 -20 6 -45 6 -25 0 -45 -3
-45 -6 0 -4 -17 -3 -38 1 -20 3 -49 3 -63 -1 -15 -3 -33 -3 -40 2 -7 4 -16 6
-20 3 -10 -6 -148 -9 -153 -3 -3 3 -34 2 -70 -1 -36 -3 -66 -3 -66 0 0 4 -102
4 -225 0 -31 -1 -110 -1 -155 1 -14 0 -30 0 -35 -1 -31 -6 -95 1 -90 10 4 6 8
20 11 33 2 12 29 96 59 187 31 91 57 172 59 180 8 30 128 396 136 415 5 11 29
85 55 165 25 80 49 152 52 160 3 8 7 17 8 20 0 3 8 30 18 60 9 30 16 58 16 63
0 4 7 20 15 36 8 15 17 39 20 52 3 13 46 148 97 299 76 228 92 287 95 348 3
79 -13 142 -52 202 -62 97 -140 147 -259 166 -16 3 -36 7 -42 9 -7 2 -13 1
-13 -3 0 -7 -108 -8 -115 0 -2 2 -32 1 -65 -2 -33 -3 -63 -4 -65 -2 -2 3 -46
4 -97 3 -51 -1 -100 -2 -108 -2 -52 2 -135 -1 -142 -5 -4 -3 -8 0 -8 6 0 6 -4
9 -8 6 -5 -3 -26 -5 -48 -6 -52 -1 -236 -2 -249 -1 -29 2 -121 2 -130 1 -5 -2
-14 -2 -20 0 -5 1 -43 1 -85 0 -41 -1 -79 -1 -85 -1 -50 2 -122 2 -130 1 -5
-2 -14 -2 -19 -1 -6 1 -46 2 -90 1 -45 0 -90 0 -101 0 -80 0 -140 -2 -147 -6
-4 -3 -8 -1 -8 3 0 5 -30 6 -66 3 -36 -3 -67 -4 -69 -2 -6 7 -185 7 -185 1 0
-3 -20 -3 -45 1 -25 4 -46 5 -48 3z"/>
<path d="M6192 2885 c-107 -25 -204 -84 -275 -166 -50 -58 -49 -57 -76 -114
-37 -79 -49 -135 -46 -231 4 -146 46 -245 145 -343 76 -75 81 -78 153 -111
130 -58 273 -60 409 -5 55 22 68 30 109 68 10 9 22 17 27 18 17 1 95 109 126
174 80 168 59 374 -52 514 -80 99 -142 145 -248 182 -71 25 -198 31 -272 14z"/>
</g>
</svg>
